# xmcd
#
# Track frame offsets: 
#        150
#        27667
#        53344
#        73730
#        96896
#        115252
#        136449
#        161497
#        180981
#        204759
#        224229
#        247513
#        268443
#
# Disc length: 3826 seconds
#
# Revision: 0
# Processed by: cddbd v1.5.2PL0 Copyright (c) Steve Scherf et al.
# Submitted via: ExactAudioCopyFreeDBPlugin 1.0
#
DISCID=ba0ef00d
DTITLE=K-Dans - Nou Fe Sa Deja
DYEAR=2012
DGENRE=World
TTITLE0=Santiman
TTITLE1=Foli
TTITLE2=Move Dout
TTITLE3=Li Pa Fasil
TTITLE4=Ou Meritel
TTITLE5=My Everything
TTITLE6=Apresye
TTITLE7=Nou Pa Dako
TTITLE8=Dialogue
TTITLE9=Koka
TTITLE10=Nou Fe Sa Deja
TTITLE11=Reziyen
TTITLE12=12 Janvier M Pa Ka Bliyel
EXTD=
EXTT0=
EXTT1=
EXTT2=
EXTT3=
EXTT4=
EXTT5=
EXTT6=
EXTT7=
EXTT8=
EXTT9=
EXTT10=
EXTT11=
EXTT12=
PLAYORDER=
